<?xml version="1.0" encoding="utf-8"?>
<!-- Generator: Adobe Illustrator 15.1.0, SVG Export Plug-In . SVG Version: 6.00 Build 0)  -->
<!DOCTYPE svg PUBLIC "-//W3C//DTD SVG 1.1//EN" "http://www.w3.org/Graphics/SVG/1.1/DTD/svg11.dtd">
<svg version="1.1" id="Layer_1" xmlns="http://www.w3.org/2000/svg" xmlns:xlink="http://www.w3.org/1999/xlink" x="0px" y="0px"
	 width="597.199px" height="154.506px" viewBox="0 172.747 597.199 154.506" enable-background="new 0 172.747 597.199 154.506"
	 xml:space="preserve">
<g>
	<rect x="28.069" y="274.721" fill="#F15F22" width="2.06" height="2.061"/>
	<rect x="30.129" y="277.039" fill="#F15F22" width="4.893" height="2.574"/>
	<rect x="114.335" y="270.601" fill="#F15F22" width="2.06" height="2.061"/>
	<polygon fill="#F15F22" points="101.202,239.7 103.262,239.7 103.262,242.017 112.275,242.017 112.275,239.7 114.335,239.7 
		114.335,230.687 112.275,230.687 112.275,228.626 103.262,228.626 103.262,230.687 101.202,230.687 101.202,233.004 
		99.142,233.004 99.142,237.64 101.202,237.64 	"/>
	<rect x="81.116" y="251.03" fill="#F15F22" width="2.575" height="2.06"/>
	<path fill="#F15F22" d="M0,327.253h154.506V172.747H0V327.253z M121.288,272.661h-4.893v2.06h-4.12v-2.06h-2.061v-2.061h-6.953
		v-4.12h-2.06v-2.574h4.12v-2.061h4.893v2.061h2.061v4.893h4.12v1.802h4.893V272.661z M19.571,261.588h4.12v4.893h2.06v-6.953h-4.12
		v-2.06h-2.06v-2.317h2.06v-6.953h2.06v-2.06h2.06v-2.06h2.06v-2.06h2.06v-4.12h2.575v-2.575h4.12v-4.12h4.635v-2.06h2.06v-2.06
		h4.893v-2.06h4.121v-2.575h6.953v-2.06h39.657v-2.06h2.06v-2.06h4.12v-2.06h11.073v2.06h2.06v2.06h2.575v6.953h2.06v2.06h4.12v2.06
		h2.06v2.06h2.06v2.061h2.575v9.013h-2.575v2.06h-2.06v2.06h-2.06v2.06h-4.12v2.575h-4.893v2.061h-4.12v1.803h-6.953v4.12h-4.121
		v2.06h-6.438v4.893h-6.18v-4.893h-4.12v2.061h2.06v7.21h4.12v4.12h2.06v2.061h4.893v-2.061h6.438v2.061h4.893v2.575h-4.893v4.378
		h2.06v2.316h-4.12v-2.06H86.009v-2.06h-2.06v-4.893h-4.893v-2.061h-2.06v-2.061h-2.317v-6.438h-2.06v-6.953h-2.06v9.014h2.06v6.438
		h2.06v6.953H63.605v-2.061h-4.377v-2.575h-2.06v-4.12h-2.575v-2.575h-2.06v-4.12h-2.06v-6.953h-4.12v4.121h2.06v4.893h2.06v6.438
		h4.12v2.061h-6.438v2.574H35.021v2.061h19.571v-2.061h2.575v4.378h-2.575v2.06H32.961v-2.06h-7.21v-2.06h-2.06v-4.893h-2.06v-4.121
		h-2.06V261.588z"/>
	<polygon fill="#F15F22" points="74.678,255.15 76.738,255.15 76.738,253.09 72.618,253.09 72.618,259.527 74.678,259.527 	"/>
	<polygon fill="#F15F22" points="41.202,261.588 43.262,261.588 43.262,257.211 39.142,257.211 39.142,259.527 41.202,259.527 	"/>
	<polygon fill="#F15F22" points="204.463,261.33 194.678,229.142 178.97,229.142 178.97,234.549 184.635,234.549 184.635,265.708 
		178.97,265.708 178.97,271.115 195.966,271.115 195.966,265.708 190.815,265.708 190.815,238.154 201.631,271.115 207.296,271.115 
		218.112,238.154 218.112,265.708 212.961,265.708 212.961,271.115 230.472,271.115 230.472,265.708 224.549,265.708 
		224.549,234.549 230.472,234.549 230.472,229.142 214.764,229.142 	"/>
	<polygon fill="#F15F22" points="238.197,234.549 244.12,234.549 244.12,265.708 238.197,265.708 238.197,271.115 272.189,271.115 
		272.189,256.953 266.009,256.953 266.009,265.708 250.815,265.708 250.815,252.575 257.253,252.575 257.253,258.498 
		261.888,258.498 261.888,257.725 261.888,241.76 261.888,240.987 257.253,240.987 257.253,247.167 250.815,247.167 
		250.815,234.549 266.009,234.549 266.009,243.047 272.189,243.047 272.189,229.142 238.197,229.142 	"/>
	<polygon fill="#F15F22" points="279.914,243.82 286.094,243.82 286.094,235.322 293.82,235.322 293.82,265.708 287.64,265.708 
		287.64,271.115 306.695,271.115 306.695,265.708 300.516,265.708 300.516,235.322 307.982,235.322 307.982,243.82 314.42,243.82 
		314.42,229.142 279.914,229.142 	"/>
	<path fill="#F15F22" d="M341.459,229.142h-6.953l-14.162,36.566h-4.378v5.407h16.48v-5.407h-5.149l2.832-7.983h15.451l2.832,7.983
		h-5.15v5.407H360v-5.407h-4.635L341.459,229.142z M332.189,252.317l5.407-15.193l5.407,15.193H332.189z"/>
	<polygon fill="#F15F22" points="391.674,265.451 378.283,265.451 378.283,234.549 384.979,234.549 384.979,229.142 
		365.665,229.142 365.665,234.549 371.588,234.549 371.588,265.708 365.665,265.708 365.665,271.115 398.111,271.115 
		398.111,256.18 391.674,256.18 	"/>
	<polygon fill="#F15F22" points="431.33,243.82 437.511,243.82 437.511,235.322 445.236,235.322 445.236,265.708 439.056,265.708 
		439.056,271.115 458.111,271.115 458.111,265.708 451.932,265.708 451.932,235.322 459.399,235.322 459.399,243.82 465.579,243.82 
		465.579,229.142 431.33,229.142 	"/>
	<path fill="#F15F22" d="M490.815,228.626c-4.378,0-10.558,1.03-14.936,6.438c-3.348,4.12-4.893,9.013-4.893,15.966
		c0,12.876,7.726,21.116,20.086,21.116c6.18,0,11.33-2.318,14.42-6.181c1.288-1.803,2.575-4.12,3.605-6.953
		c1.03-3.09,1.288-5.407,1.288-8.24c0-4.635-0.516-10.558-4.636-15.451C502.146,230.687,496.996,228.626,490.815,228.626z
		 M500.601,261.072c-2.317,3.605-5.407,5.408-9.527,5.408s-7.468-1.803-10.043-4.893c-1.803-2.317-2.833-6.18-2.833-11.331
		c0-3.862,0.772-16.223,12.36-16.223s12.36,12.361,12.36,16.223C503.176,254.635,502.146,258.498,500.601,261.072z"/>
	<path fill="#F15F22" d="M536.91,229.142h-6.953l-14.163,36.566h-4.378v5.407h16.481v-5.407h-5.15l2.832-7.983h15.451l2.832,7.983
		h-5.149v5.407h16.738v-5.407h-4.378L536.91,229.142z M527.64,252.317l5.407-15.193l5.408,15.193H527.64z"/>
	<path fill="#F15F22" d="M594.077,237.125c-2.317-3.863-6.438-6.695-11.33-7.726c-2.575-0.515-4.636-0.515-6.953-0.515h-16.48v5.665
		h5.665v31.159h-5.665v5.407h15.193c1.802,0,4.377,0,6.438-0.257c5.923-0.772,9.527-2.833,12.36-6.952
		c2.575-3.605,3.862-8.498,3.862-14.164C597.425,245.622,596.138,240.472,594.077,237.125z M586.867,262.104
		c-3.348,3.348-7.726,3.604-11.588,3.604h-3.605v-31.159h4.635c1.288,0,2.833,0.257,4.378,0.515
		c9.271,1.803,10.043,12.618,10.043,15.708C590.472,254.378,589.699,259.271,586.867,262.104z"/>
</g>
</svg>
